<svg xmlns="http://www.w3.org/2000/svg" xml:space="preserve" x="0px" y="0px" viewBox="0 0 1564.742 628.04"><g fill="#FDFEFD"><path d="M840.542 17.522c57.91-12.9 117.53-20.65 176.92-16.31 10.12.38 20.18 2.01 30.02 4.41 8.01 1.88 15.62 5.8 21.59 11.48 5.95 6.1 9.26 14.25 11.06 22.46 1.33 6.63 2.89 13.44 1.68 20.22-.91 5.06-2.03 10.15-4.24 14.82-3.5 7.18-9.59 12.6-14.93 18.39-6.52 7.1-14.52 13.43-24.08 15.66-10.09 2.92-20.67 2.44-31.04 2.9-9.7.59-19.44.39-29.09 1.5-15 1.48-30.03 2.47-45.06 3.43-13.94 1.69-27.92 2.91-41.91 3.94-11.68 1.5-23.37 2.87-35.09 3.85-3.33.44-6.82.63-9.84 2.17-3.69 2.91-4.17 7.96-5.54 12.14-4.86 16.91-4.75 34.68-4 52.1.77 8.73 2.6 17.68 7.29 25.21 2.07 3.55 6.59 3.59 10.21 3.67 29.72-.15 59.47-1.17 89.06-4.13 20.56-2.53 41.31-5.18 60.98-11.98 14.47-4.84 26.75-14.28 40.82-20.02 10.91-4.44 22.36-8.19 34.18-8.92 12.53 1.36 25.24 5.7 34.4 14.69 3.83 3.99 7.25 8.42 9.9 13.29 2.87 5.31 4.29 11.23 5.61 17.08 2.45 8.9-.25 18.18-3.33 26.56-3.95 10.55-12.85 17.84-20.23 25.93-4.3 4.59-9.37 8.4-14.87 11.42-2.15 1.45-5.05 2.75-5.4 5.62 8.4-2.03 16.54-5.27 25.24-5.94 11.59-1.58 23.44.67 34.16 5.14 8.87 4.16 16.51 11.02 21.51 19.46 3.03 5.36 3.76 11.59 4.87 17.54 5.59-.32 10.73-2.85 16.2-3.86 23.06-5.44 46.61.73 69.9-.06 3.67-.25 8.44.67 10.93-2.8 6.17-8.4 10.58-17.93 16.65-26.39 1.39-1.8 1.82-4.06 2.07-6.27-10.94-.42-21.79-1.96-32.7-2.68-10.84-.76-21.54-2.75-32.15-4.98-12.79-3.25-26.27-6.16-36.84-14.56-8.34-5.78-13.94-15.01-15.74-24.94-3.66-12.6-2.28-26.74 4.89-37.86 4.25-6.97 11.26-11.44 16.87-17.19 8.04-7.88 18.11-13.73 29.23-15.9 12.63-3.53 25.84-2.59 38.79-2.31 11.03.3 21.98 1.77 32.98 2.54 21.33 2.49 42.69 6.15 63 13.31 9.28 3.45 18.28 7.86 26.12 13.95 9.46 6.28 16.57 15.5 22.01 25.34 3.41 7.2 5.2 15.05 6.63 22.85 2.15 12.88-1.37 25.72-4.48 38.12-2.29 10.04-6.23 19.61-10.56 28.91-8.09 17.45-18.08 33.99-29.36 49.55-10.27 15.06-22.89 28.34-35.75 41.2-1.4 1.39-2.74 2.9-3.48 4.75 4.35 0 7.83-2.98 11.84-4.24 19.42-7.04 39.02-13.59 58.18-21.32 8.65-3.59 17.61-6.46 26.01-10.63 3.48-1.69 6.66-4.39 7.91-8.17 3.12-8.69 6.91-17.11 10.49-25.61 4.88-10.71 9.44-21.65 16.11-31.42 4.53-7.31 9.7-14.35 16.33-19.92 8.3-7.25 16.01-16.19 27.03-19.26 8.77-2.23 18.03-5.12 27.08-2.67 7.17 1.72 14.81 3.19 20.61 8.09 6.99 5.7 12.54 13.51 14.63 22.37 3.2 10.75 2.07 22.26-.96 32.92-4.48 19.57-14.15 37.32-22.06 55.61-9.32 22.19-18.02 44.71-24.15 68.02-3.92 13.1-5.39 26.8-9.27 39.9-1.92 7.2-6.51 13.21-10.99 19.01-11.21 13.18-23.72 26.04-39.9 32.97-10.02 3.94-21.31 6.76-31.91 3.38-6.64-1.62-13.03-4.75-17.62-9.92-9.53-9.59-11.52-23.88-11.72-36.8-9.28 4.15-19.02 7.12-28.6 10.5-22.16 7.86-45.13 13.11-68.14 17.82-19.79 2.96-40.16 5.95-60.02 1.83-21.27-3.52-41.55-12.23-59.09-24.71-23.93-15.62-42.73-40.31-48.2-68.67-3.3-14.6-4.56-29.8-2.18-44.64.6-3.76 2.43-7.26 2.45-11.12-4.15 2.11-7.74 5.16-11.97 7.1-8.24 3.92-17.29 5.4-26.06 7.56-6.55 1.56-13.25 2.3-19.81 3.75-8.65 1.79-17.51 2.12-26.21 3.53-2.32.46-5.14.08-6.62 2.32 1.52 2.74 4.32 4.29 6.72 6.15 11.08 7.98 19.27 19.98 22.34 33.31 3.37 11.55 5.45 23.81 3.14 35.77-.84 4.99-2.92 9.65-3.89 14.6 4.79-1.23 9-4.08 13.88-5.1 9.16-2.09 18.69-5.28 28.14-2.97 8.56 1.54 17.34 4.99 22.75 12.13 7.87 9.53 9.97 22.24 10.95 34.2.83 9.54-.2 19.35-3.93 28.23-5.57 10.67-14.45 19.03-22.72 27.59-13.01 11.74-28.64 20.29-44.78 26.92-9.9 4.01-19.92 7.9-30.42 10.05-14.81 3.96-30.34 3.85-45.55 3.24-10.4-.27-20.44-3.18-30.42-5.82-13.42-3.96-26.6-9.29-37.91-17.66-10.09-7.24-18.36-16.81-24.79-27.39-6.11-10.04-9.07-21.6-11.32-33.03-2.35-10.73-1.23-21.89 1.85-32.35.78-4.5 4.06-8.07 4.66-12.62-5.71-.09-11.47.81-17.1-.5-9.32-2.07-19.14-3.78-26.95-9.66-9.04-6-14.41-16.35-15.83-26.94-1.41-8.11.62-16.24 2.7-24.05 1.61-5.62 3.2-11.59 7.28-16 1.52-1.58 2.68-3.47 3.66-5.43-1.61-.19-3.22-.31-4.82-.22-13.93.69-27.89.14-41.81.75-19.11.06-38.76 1.46-57.21-4.57-8.86-2.32-17.08-6.74-24.23-12.43-4.85-3.86-7.21-10.47-13.29-12.81-.87 4.44.81 8.74 2.27 12.86 5.25 13.17 6.28 28.01 2.94 41.79-1.21 5.48-4.13 10.54-8.38 14.22-2.38 2.31-5.6 3.49-7.97 5.79-.54 3.82 2.23 7.1 2.39 10.88 1.37 15.25-1.05 31.78-10.73 44.12-10.65 13.38-27.03 21.22-43.77 23.53-22.38 4.15-45.91 2.48-67.24-5.61-8.86-3.61-16.37-9.98-22.33-17.39-3.5-4.4-6.85-9.08-8.61-14.48-3.63-10.27-3.96-21.4-2.71-32.13.26-2.64 1.3-5.28.81-7.94-3.63-2.91-7.29-6.16-11.77-7.66 1.05 4.43 4.38 8.07 4.74 12.73 1.01 13.03-.53 26.44-5.69 38.52-7.77 15.08-22.31 26.17-38.43 31.07-24.74 7.57-52.1 6.68-76.03-3.33-9.37-4.46-17.25-11.56-23.75-19.57-5.79-6.99-8.99-15.75-10.79-24.55-2.63.31-4.27 2.6-6.39 3.92-4.74 3.07-10.29 4.72-15.86 5.35-8.96.85-18.03 1.09-26.96-.13-4.44-.66-8.7-2.12-13.1-2.92-2.33-.53-4.21 1.18-6.14 2.16-6.26 3.8-13.65 5.06-20.86 5.4-11.96.69-24.82.72-35.44-5.59-6.33-4.95-11.73-11.64-13.97-19.46-1.95-9.28.36-18.69.96-27.99.68-9.97 1.82-19.9 2.42-29.87.68-11.74 2.36-23.4 2.71-35.15-6.71-.04-13.44-.35-20.12.39-1.48 9.52-.59 19.18-1.32 28.75-.63 5.34-1.65 10.95-4.96 15.34-3.31 4.41-7.9 7.6-12.52 10.51-1.07.6-2.28 1.55-1.94 2.99.35 9.06.48 18.16-.3 27.21-.52 4.3-1.34 8.65-3.32 12.55-5.31 8.83-14.82 14.66-25.05 15.72-13.77 1.27-28.58 2.2-41.3-4.25-4.62-2.95-8.5-7.05-11.5-11.63-2.63-3.93-2.66-8.79-3.39-13.29-3.48.75-6.46 2.81-9.79 4.01-7.45 2.78-15.16 5.16-23.15 5.59-10.65.84-21.54 1.02-32-1.45-13.06-3.58-26.29-8.6-36.18-18.19-11.42-10.76-20.8-24.46-23.71-40.1-2.63-11.17-3.4-22.78-1.91-34.17 1.53-10.97 3.98-22.14 9.94-31.63 10.36-19.15 29.76-32.67 50.89-37.26 10.98-2.29 22.37-3.48 33.52-1.77 8.97 1.45 17.96 3.54 26.4 6.94 2.67.81 4.6 4.61 7.62 3.26 2.52-3.08 4.11-6.93 7.18-9.58 4.63-4.02 10.17-7.27 16.28-8.32 8.56-1.68 17.35-1.4 26.01-1.07 5.79.23 11.28 2.2 16.95 3.1 3.57-.72 6.85-2.67 10.5-3.25 13.7-2.39 27.66-1.9 41.51-2.18 17.64-.9 35.28-1.88 52.94-1.87 9.49-.08 18.99 1.54 27.92 4.73 1.64.68 3.41.28 5.1.04 6.59-1.12 13.31-.72 19.97-.75 6.4-.05 12.87.54 18.96 2.62 1.95.58 4.05 1.51 6.08.66 2.56-1.66 4.59-4.12 7.47-5.28 6.45-2.74 13.57-3.18 20.47-3.69 14.01-.46 28.02-.27 42.03-.5 16.12-.51 32.22-1.43 48.35-1.55 11.24-.02 22.6-.59 33.7 1.58 4.7.78 9.23 2.32 13.93 3.05 3.45.15 6.77-1.07 10.17-1.52 11.86-1.8 23.9-1.11 35.86-1.41 23.01.22 45.98-1.67 69-1.71 13.32.09 27.07-1.12 39.89 3.36 5.86 1.79 10.16 6.61 13.38 11.61 3.16 4.93 2.82 10.99 4.26 16.47 2.19-.69 3.95-2.24 5.37-4.01 3-3.65 6.7-6.62 10.05-9.94 5.34-4.89 10.8-9.92 17.54-12.8 1.16-.49 2.78-1.77 1.58-3.12-2.61-3.68-6.14-6.63-8.56-10.47-10.42-13.81-15.7-30.7-18.47-47.58-2.62-16.86-2.55-33.96-2.61-50.98-.13-15.77.37-31.61 3.08-47.18 3.83-19.39 8.74-38.88 18.23-56.36 5.26-8.73 11.04-17.24 17.96-24.75 12.93-12.54 26.1-25.4 42.44-33.42 11.57-5.87 24.38-8.49 36.9-11.49m83.07-1.89a658.953 658.953 0 0 0-69.24 11.51c-12.48 2.53-25.03 5.09-37.04 9.37-14.25 5.51-26.84 14.68-37.68 25.33-11.82 10.16-21.73 22.61-28.31 36.77-8.77 17.81-13.06 37.42-15.49 57.01-1.84 13.26-1.38 26.68-1.44 40.02.04 21.45.45 43.34 6.92 63.99 3.38 11.11 9.95 20.88 17.28 29.76 4.73 5.76 10.87 10.18 17.35 13.79 2.49 1.52 5.48 2.77 6.75 5.61-10.63.47-22.17.73-31.14 7.25-7.7 4.67-13.49 11.67-20.16 17.59-7.89 7.1-11.39 17.77-12.42 28.07-.21 11.75 5.56 23.48 15.26 30.21 12.53 9.76 28.83 12.32 44.26 13.17 19.98.53 39.94-1.12 59.92-1.04 13.05-.27 26.18.46 39.16-1.34 2.7-.44 5.44-.46 8.19-.4l-1.36 1.16c-1.17 2.14-3 3.79-5 5.14-4.89 3.31-8.94 7.64-13.43 11.44-6.27 5.39-10.76 12.73-12.82 20.73-1.39 5.53-3.13 11.14-2.84 16.91.88 7.6 3.67 15.54 10.08 20.22 10.86 8.83 25.79 8.72 39.06 8.41 10.07.03 19.95-1.98 29.92-3.02-.41 1.49-.78 3.07-1.9 4.21-6.16 6.19-14.47 10.57-18.44 18.68-8.08 15.62-6.73 34.28-1.4 50.55 4.82 15.82 15.75 29.15 28.91 38.87 20.2 12.98 44.13 19.43 68.01 20.42 23.04.82 45.92-5 66.75-14.61 16.86-7.04 33.06-16.88 44.81-31.1 4.35-4.68 9.21-9.07 12.23-14.8 2.78-4.77 2.93-10.48 3.03-15.85-.18-10.65-.39-21.89-5.68-31.46-5.21-8.36-15.72-11.73-25.14-10.99-12.13 1.29-24.18 5.17-34.1 12.4-6.45 4.19-12.11 9.42-18.39 13.83-5.65 3.97-12.75 4.95-19.5 4.96-.07-4 3.52-6.19 6.08-8.61 4.5-3.84 8.4-8.32 12.01-12.99 12.22-13.98 16.14-34.08 12.31-52-1.54-7.87-3.29-15.96-7.88-22.69-5.32-9.02-14.46-14.65-23.25-19.81-1.84-.82-2.82-2.82-1.96-4.75 2.01-5.05 3.48-10.52 6.74-14.96 2.47-3.59 7.17-2.98 10.96-3.46 14-1.45 27.96-3.35 41.78-6.03 11.9-2.64 24.32-4.97 34.66-11.82 8.1-5.35 16.15-11.1 22.23-18.78 3.96-5.01 9.16-8.96 12.63-14.36 5.35-8.03 5.29-19.5-.68-27.2-5.02-6.56-12.24-11.48-20.25-13.57-11.4-3.43-23.52-1.78-34.97.45-14.86 2.65-29.49 6.41-44.41 8.71-8.66 1.48-17.47 1.37-26.17 2.52-17.91 2.07-36.01 2.04-53.92 4.11-8.69.7-17.4.87-26.09 1.42-1.26.23-2.51.42-3.75.57-1.96-1.14-4.25-1.03-6.35-1.63l3.18-.04-.8-1.44c10.47-1 20.74-3.46 30.96-5.88 32.49-6.17 64.24-15.55 95.89-25.03 12.92-3.95 25.12-11.29 33.58-21.96 4.38-5.03 9.49-9.54 12.83-15.4 4.89-10.56 4.26-22.91.21-33.63-6.13-12.35-18.6-22.09-32.64-22.9-11.39-.56-22.27 3.75-32.56 8.12-12.99 5.7-24.63 14.15-38.03 18.97-18.39 6.78-37.94 9.47-57.26 12.21-10.67 1.27-21.42 1.82-32.09 3.1-16.66 1.4-33.39 1.51-50.09 2.19-7.67-.04-15.36.44-23-.3-5.61-.29-10.24-4.09-13.56-8.32-7.83-10.11-10-23.13-10.64-35.58-.42-12.16-.56-24.45 1.49-36.49 1.09-10.87 5.12-21.14 9-31.26.83-2.18 2.17-4.29 4.24-5.48 3.07-1.07 6.37-1.09 9.56-1.58a745.6 745.6 0 0 1 45.97-4.79c10.72-.57 21.34-2.3 32.06-2.86 29.94-2.55 59.88-5.53 89.95-5.78 9.77-.54 20.22-1.35 28.55-7.04 7.05-4.56 11.49-11.91 17.52-17.6 3.76-3.42 5.41-8.35 6.39-13.2 1.78-7.22.14-14.68-1.32-21.8-2.05-10.15-10.26-18.47-20.04-21.49-10.65-3.85-22.1-3.56-33.2-4.82-30.27-2.97-60.64-.02-90.84 2.19m303.87 163.1c-11.18 1.7-21.52 7.51-29.27 15.67-5.23 5.45-11.96 9.76-15.38 16.71-4.24 9.44-3.38 20.51.16 30.03 2.86 7.82 9.52 13.58 16.77 17.3 10.81 5.41 22.81 7.58 34.61 9.7 23.85 4.13 48.12 4.57 72.04 8.07-2.8 8.06-7.28 15.47-11.47 22.88-5.85 9.46-11.28 19.2-17.52 28.41-3.31 4.73-9.55 5.51-14.86 5.95-14.05 1.36-28.02-1.2-42.05-1.5-11.66-.45-23.7-1.18-34.94 2.58-10.33 2.59-19.21 9.11-26.54 16.64-4.72 4.7-10.63 8.65-13.21 15.05-1.82 4.78-2.46 9.91-3.58 14.88-4.42 21.28-3.68 43.8 3.37 64.43 6.82 17.27 18.56 32.49 33.22 43.85 12.78 9.65 27.07 17.23 42.1 22.75 12.05 4.19 24.84 5.97 37.58 5.84 26.13.31 51.75-5.84 76.77-12.79 19.57-5.09 38.58-12.06 57.44-19.33 4.81-1.82 9.32-4.53 14.48-5.37-.64 11.2-1.38 22.59 1 33.66 1.16 6.08 4.9 11.41 9.49 15.44 5.51 4.43 13.03 4.78 19.79 4.24 10.17-.61 19.25-5.99 27.23-11.94 7.67-5.64 13.39-13.35 19.99-20.12 4.55-4.75 8.43-10.29 10.39-16.63 3.27-10.66 4.39-21.81 7.26-32.57 8.68-35.34 22.82-69.03 38.05-101.98 7.27-16.16 13.87-33.89 11.01-51.9-.95-7.66-5.37-14.91-12.05-18.86-10.67-6.77-24.49-6.8-36-2.24-8.25 3.47-14.49 10.04-20.97 15.96-6.15 5.32-11.47 11.62-15.63 18.61-9.63 16.46-17.01 34.08-24.14 51.73-2.6 5.09-3.56 11.93-9.36 14.52-15.59 7.77-32.09 13.54-48.31 19.86-19.19 7.59-38.85 13.87-58.46 20.26-21.1 6.37-42.77 12.34-65.01 11.76-10.86.05-22.18-2.87-30.49-10.13-1.49-1.54-1.19-3.75-1.03-5.67 15.5-2.04 30.91-4.8 46.48-6.24 9.97-.66 19.96-2.11 29.54-4.98 11.61-4.84 19.93-14.79 28.16-23.9 12.95-13.33 23.66-28.63 33.68-44.22 12.18-19.86 23.23-40.9 28.01-63.88 2.66-10.6 3.64-21.84 1.02-32.55-1.99-10.42-7.6-19.93-15.1-27.35-11.4-11.04-26.32-17.56-41.32-22.1-25.06-6.88-51.01-9.89-76.92-11.08-11.99-.73-24.15-1.96-36.03.55m-815.63 133.91c-7.45.74-15.87-.54-22.29 4.09-4.06 2.79-5.51 7.74-8.54 11.36-2.75 1.72-4.81-1.73-6.52-3.39-5.74-6.4-15.14-5.71-22.96-5.85-7.01.35-14.68-.92-20.99 2.88-2.02 1.35-4.54.58-6.03-1.16-4.23-4.1-10.26-5.49-15.99-5.52-21.36-.31-42.69.95-64.05 1.11-10.3.04-20.61.3-30.86 1.36-3.42.51-7.05 1.05-9.88 3.2-2.22 2.06-3.32 4.99-5.3 7.25-3.31.9-3.9-3.64-6.3-5.02-7.45-5.21-17.12-3.84-25.69-4.04-8.3-.02-18.45.53-23.43 8.29-4.92 6.79-2.95 15.43-2.82 23.18-.65-.13-1.94-.38-2.59-.51-5.61-6.31-12.19-11.83-19.91-15.39-15.41-7.08-33.06-9.44-49.72-6.04-9.23 2.06-18.52 4.88-26.33 10.4-4.37 3.2-9.12 6.11-12.41 10.53-3.04 4.04-6.13 8.1-8.58 12.56-7.71 14.55-9.04 31.63-7 47.74 2.23 21.52 16.12 41.79 35.99 50.68 12.08 5.7 25.63 7.98 38.94 7.11 15.96-1.14 32.12-6.56 43.98-17.63 2.51-2.17 4.21-5.46 7.62-6.37-.03 8.75-1.01 17.5-.24 26.26.19 5.23 3.37 9.89 7.2 13.23 3.85 3.6 9.45 3.72 14.4 4 7.83.07 15.72.18 23.5-.98 5.35-.77 9.66-4.82 12.28-9.34 2.91-6.56 2.44-13.92 2.5-20.93.1-7.66-.11-15.31-.56-22.94-.17-2.3 2.64-2.64 4.34-2.97 6.52-.86 13.85-5 14.79-12.1 1.26-7.59.64-15.33 1.19-22.98.41-6.19-.27-13.1 3.59-18.39 2.98-3.01 7.51-2.69 11.4-2.88 9.98-.08 19.97-.24 29.91-1.18 3.18-.93 2.19 3.06 2.15 4.87-1.8 15.15-2.37 30.4-3.67 45.6-1.09 16.96-3.44 33.87-2.95 50.9-.22 6.8 4.72 12.98 10.91 15.35 7.52 2.82 15.69 2.09 23.55 2 7.19-.39 15.36-1.13 20.4-6.96 3.36-3.22 2.9-8.18 3.66-12.38.78-3-.39-6.42 1.85-8.95-.33 2.27-.73 4.56-.36 6.86 1.86 2.28 2.08 5.42 3.63 7.89 2.06 3.42 4.75 6.97 8.78 8.08 4.57 1.31 9.37 1.5 14.1 1.52 6.7 0 13.45-.11 20.06-1.29 4.91-.77 8.84-4.5 11.09-8.77 3.09-6.31 2.84-13.5 2.87-20.33-.18-8.29-.11-16.6-1.33-24.81 5.38-.42 6.88 5.91 10.84 8.27 5.87 3.54 12.99 2.12 19.47 1.96-.54 5.22-5.2 8.42-7.27 12.97-5.13 10.57-6.9 23.06-3.67 34.47 3.39 15.12 14.76 27.8 28.94 33.77 15.05 6.68 31.94 7.37 48.12 5.92 17.22-1.99 34.87-9.5 44.89-24.25 10.12-15.59 10.45-36.69 1.42-52.86-2.21-4.08-5.98-6.98-8.34-10.94 5.31-.68 10.74.77 15.98-.69 4.64-.95 8.37-3.99 12.36-6.33 1.78 4.73 2.29 10.24 6.33 13.79 4.82 5.18 12.31 4.98 18.82 5.05-.43 3.13-2.53 5.58-4.05 8.22-2.25 3.74-3.33 8.05-4 12.32-1.59 12.25.52 25.51 8.32 35.41 9.29 12.58 25.15 17.67 39.97 20.02 14.94 1.32 30.31 1.6 44.88-2.47 12.09-3.03 23.86-9.68 30.7-20.37 6.09-9.19 7.86-20.72 6.41-31.51-.73-6.15-2.21-12.61-6.49-17.31-1.7-1.77-3-3.89-3.43-6.33 5.53-.28 11.48.85 16.57-1.95 4.51-2.85 7.98-7.53 8.68-12.91 1.08-7.43.76-15.04-.14-22.47-.38-3.64-2.48-6.67-4.25-9.74-1.53-4.24-.79-8.86-.94-13.27.18-5.38-.63-10.92 1-16.15 1.95-6.16 2.29-12.66 2.72-19.06.71-8.56 1.31-17.15 1.32-25.75-.06-4.69-.91-9.94-4.72-13.12-4.83-4.61-11.84-5.38-18.21-5.39-16.33-.05-32.65.53-48.97.73-23.63.61-47.31-.17-70.91 1.43-6.17.11-11.85 3.52-18.07 2.76-6.6-.32-12.37-4.2-18.98-4.5-11.98-.76-24-.04-35.99-.04-25.55.84-51.13.43-76.69 1.12z"/><path d="M1207.802 206.562c.91-5.93 5.5-10.14 10.19-13.37-.08 4.13-.51 8.59 1.69 12.3 6.3 11.03 14.91 20.45 23.37 29.84 1.38 1.38 2.07 3.2 2.38 5.11-10.38-1.38-20.76-4.48-29.5-10.36-7.39-5.2-8.94-15.13-8.13-23.52zM1099.152 211.392c1.12.66 2.25 1.35 3.37 2.05 2.38 4.66 4.09 9.86 3.65 15.16-.7 9.46-7.04 18.1-15.54 22.15-4.95 2.37-10.15 4.14-15.39 5.73-9.04 3.08-18.16 5.97-27.53 7.81 3.11-4.34 5.75-9.26 10.34-12.25 12.96-8.6 27.47-16.3 36.08-29.78 2.49-3.19 3.99-6.98 5.02-10.87zM152.582 358.712c.18-8.04-.49-16.13.63-24.11-.49 6.34-.37 12.71-.36 19.07.11 37.45.07 74.91-.08 112.37-.49-35.77.17-71.56-.19-107.33zM1437.072 444.032c2.75.16 5.77-.52 8.37.62 2.94 2.79 3.8 7.1 4.31 10.99.59 10.68-.81 21.53 1.42 32.08 1.85 6.31 4.12 12.95 9.43 17.21-4.37 2.08-9.2 3.63-14.09 2.86-5.65-.61-10.72-5.33-11.1-11.11-1.06-10.29-.57-20.69-.35-31.02.03-6.77 1.54-13.39 1.9-20.11l.11-1.52zM948.182 500.142c1.4-2.17 4.15-2.76 6.53-2.03 2.86 2.68 3.66 6.81 3.43 10.58-.29 7.58-1.52 15.61 1.65 22.79 1.66 4.43 4.69 8.41 5.29 13.2.26 4.45-4.8 6.78-8.61 6.77-7.52-6.95-14.15-16.14-14.39-26.76-.13-8.46.97-17.56 6.1-24.55z"/></g><g fill="#000001"><path d="M923.612 15.632c30.2-2.21 60.57-5.16 90.84-2.19 11.1 1.26 22.55.97 33.2 4.82 9.78 3.02 17.99 11.34 20.04 21.49 1.46 7.12 3.1 14.58 1.32 21.8-.98 4.85-2.63 9.78-6.39 13.2-6.03 5.69-10.47 13.04-17.52 17.6-8.33 5.69-18.78 6.5-28.55 7.04-30.07.25-60.01 3.23-89.95 5.78-10.72.56-21.34 2.29-32.06 2.86a745.6 745.6 0 0 0-45.97 4.79c-3.19.49-6.49.51-9.56 1.58-2.07 1.19-3.41 3.3-4.24 5.48-3.88 10.12-7.91 20.39-9 31.26-2.05 12.04-1.91 24.33-1.49 36.49.64 12.45 2.81 25.47 10.64 35.58 3.32 4.23 7.95 8.03 13.56 8.32 7.64.74 15.33.26 23 .3 16.7-.68 33.43-.79 50.09-2.19 10.67-1.28 21.42-1.83 32.09-3.1 19.32-2.74 38.87-5.43 57.26-12.21 13.4-4.82 25.04-13.27 38.03-18.97 10.29-4.37 21.17-8.68 32.56-8.12 14.04.81 26.51 10.55 32.64 22.9 4.05 10.72 4.68 23.07-.21 33.63-3.34 5.86-8.45 10.37-12.83 15.4-8.46 10.67-20.66 18.01-33.58 21.96-31.65 9.48-63.4 18.86-95.89 25.03-10.22 2.42-20.49 4.88-30.96 5.88-1.88.05-3.74.2-5.6.35-.09.98-.18 1.96-.25 2.94 3.26.15 6.56.25 9.82-.18 1.24-.15 2.49-.34 3.75-.57 8.69-.55 17.4-.72 26.09-1.42 17.91-2.07 36.01-2.04 53.92-4.11 8.7-1.15 17.51-1.04 26.17-2.52 14.92-2.3 29.55-6.06 44.41-8.71 11.45-2.23 23.57-3.88 34.97-.45 8.01 2.09 15.23 7.01 20.25 13.57 5.97 7.7 6.03 19.17.68 27.2-3.47 5.4-8.67 9.35-12.63 14.36-6.08 7.68-14.13 13.43-22.23 18.78-10.34 6.85-22.76 9.18-34.66 11.82-13.82 2.68-27.78 4.58-41.78 6.03-3.79.48-8.49-.13-10.96 3.46-3.26 4.44-4.73 9.91-6.74 14.96-.86 1.93.12 3.93 1.96 4.75 8.79 5.16 17.93 10.79 23.25 19.81 4.59 6.73 6.34 14.82 7.88 22.69 3.83 17.92-.09 38.02-12.31 52-3.61 4.67-7.51 9.15-12.01 12.99-2.56 2.42-6.15 4.61-6.08 8.61 6.75-.01 13.85-.99 19.5-4.96 6.28-4.41 11.94-9.64 18.39-13.83 9.92-7.23 21.97-11.11 34.1-12.4 9.42-.74 19.93 2.63 25.14 10.99 5.29 9.57 5.5 20.81 5.68 31.46-.1 5.37-.25 11.08-3.03 15.85-3.02 5.73-7.88 10.12-12.23 14.8-11.75 14.22-27.95 24.06-44.81 31.1-20.83 9.61-43.71 15.43-66.75 14.61-23.88-.99-47.81-7.44-68.01-20.42-13.16-9.72-24.09-23.05-28.91-38.87-5.33-16.27-6.68-34.93 1.4-50.55 3.97-8.11 12.28-12.49 18.44-18.68 1.12-1.14 1.49-2.72 1.9-4.21-9.97 1.04-19.85 3.05-29.92 3.02-13.27.31-28.2.42-39.06-8.41-6.41-4.68-9.2-12.62-10.08-20.22-.29-5.77 1.45-11.38 2.84-16.91 2.06-8 6.55-15.34 12.82-20.73 4.49-3.8 8.54-8.13 13.43-11.44 2-1.35 3.83-3 5-5.14l1.36-1.16c-2.75-.06-5.49-.04-8.19.4-12.98 1.8-26.11 1.07-39.16 1.34-19.98-.08-39.94 1.57-59.92 1.04-15.43-.85-31.73-3.41-44.26-13.17-9.7-6.73-15.47-18.46-15.26-30.21 1.03-10.3 4.53-20.97 12.42-28.07 6.67-5.92 12.46-12.92 20.16-17.59 8.97-6.52 20.51-6.78 31.14-7.25-1.27-2.84-4.26-4.09-6.75-5.61-6.48-3.61-12.62-8.03-17.35-13.79-7.33-8.88-13.9-18.65-17.28-29.76-6.47-20.65-6.88-42.54-6.92-63.99.06-13.34-.4-26.76 1.44-40.02 2.43-19.59 6.72-39.2 15.49-57.01 6.58-14.16 16.49-26.61 28.31-36.77 10.84-10.65 23.43-19.82 37.68-25.33 12.01-4.28 24.56-6.84 37.04-9.37 22.85-5.07 45.98-8.9 69.24-11.51m44.98 8.95c-11.65.96-23.39.73-34.99 2.3-35.39 3.01-70.66 8.62-104.94 18.03-11.34 2.88-21.63 8.93-30.44 16.52-11.94 11.6-19.95 26.59-25.81 42.01-7.51 21.88-10.21 45.15-10.1 68.2.03 21.74-.73 43.9 5.13 65.05 4.38 18.15 16.96 33.63 32.69 43.36 16.62 10.1 36.04 14.88 55.36 15.71 20.7.69 41.45-.59 61.95-3.46 8.78-.74 17.43-2.41 26.09-3.98 30.49-4.91 60.62-11.86 90.39-20.03 4.64-1.12 9.4-2.03 13.79-4 9.37-1.84 18.49-4.73 27.53-7.81 5.24-1.59 10.44-3.36 15.39-5.73 8.5-4.05 14.84-12.69 15.54-22.15.44-5.3-1.27-10.5-3.65-15.16-3.06-6.12-8.86-10.48-15.14-12.92-7.12-2.75-15.01-1.29-22.06.93-12.08 3.63-22.86 10.27-33.85 16.27-26.85 14.05-57.35 17.78-86.97 21.67-25.91 2.85-51.97 3.57-78 4.47-11.21.21-23.61.9-33.1-6.16-12.94-9-17.93-25.06-20.04-39.95-2.86-24.01-1.7-48.86 6.35-71.81 4.01-11.29 8.96-22.86 18.05-31.03 4.51-4.3 10.66-6.37 16.72-7.27 9.61-1.39 19.19-3.06 28.89-3.71 12.73-1.1 25.34-3.35 38.12-4.02 17.03-1.37 34.01-3.53 51.1-4.04 14.44-.98 28.85-2.34 43.32-3.02 10.2-.99 20.49-.2 30.7-1.24 4.61-.29 7.74-4.38 9.77-8.13 2.16-5.68 1.62-12 .71-17.89-.99-6.66-5.05-13.6-11.81-15.66-14.13-4.63-29.17-4.28-43.82-5.41-10.94-.75-21.93-.68-32.87.06m143.43 282.86c-25.28 3.5-49.92 11.1-75.46 12.83-22.98 2.13-46.02 3.41-69.03 5.05-11.21.43-22.43.55-33.61 1.54-17.75.75-35.53.97-53.28 1.65-17.73 1.05-35.51.2-53.2-1.13-13.76-1.12-27.11-5.32-40.93-5.95-7.33-.16-14.8-.8-22.03.76-8.08 2.32-13.13 9.94-16.06 17.37-3.16 7.66-2.06 17.21 3.81 23.3 8.16 9.67 20.96 13.58 33.18 14.56 15.33 1.34 30.75.22 46.1-.07 22.82-.48 45.64-.71 68.44-1.57 23.54-1.81 47.07-4.86 70.71-3.87 1.1.11 2.4.43 2.53 1.76 1.82 6.49.26 13.59-3.42 19.14-3.31 5.03-6.56 10.13-10.43 14.75-1.86 2.39-5.02 2.92-7.87 2.89-15.99.12-31.99-.24-47.97.37-3.91.19-8.28-.37-11.66 2.03-4.88 3.33-7.6 8.85-10.04 14.04-2.8 6.42-4.98 13.81-2.82 20.73 2.63 6.61 9.59 10.42 16.38 11.27 24.48 2.97 48.73-4.29 73.21-2.76 2.64.32 5.54.95 7.52 2.86 1.74 3.26-.71 6.95-2.81 9.44-6.72 7.52-15.56 12.67-24.18 17.7-4.97 2.89-10.23 5.88-13.13 11.06-5.03 7.09-5.15 16.2-4.39 24.52.86 14.26 7.57 27.57 16.17 38.72 13.52 15.24 33.59 22.35 52.95 26.69 15.3 2.48 30.97 2.22 46.32.36 15.15-3.06 29.81-8.51 43.52-15.63 8.39-4.26 16.94-8.87 23.12-16.16 3.99-4.7 7.2-10.65 6.6-17-.61-8.11-.78-16.74-4.86-24-1.51-2.58-3.8-5.03-6.95-5.3-15.24-2.3-30.35 4.78-41.58 14.67-7.71 6.57-16.29 12.86-26.44 14.88-9.55 2.17-19.24-.34-28.73-1.55-4.49-.78-9.16-1.51-13.16-3.78-1.96-1-2.82-4.33-.51-5.43 9.81-6.17 21.02-10.28 29.56-18.37 11.55-9.84 20.05-23.89 21.2-39.21.25-12.37-2.58-25.26-9.92-35.4-6.17-7.48-15.31-11.44-23.21-16.7-4.22-2.58-1.85-8.05-1.2-11.87 2.37-13.26 11.3-23.98 14.85-36.85.84-2.13 1.05-5.64 4.09-5.42 11.1-.41 22.15-1.56 33.18-2.92 8.93-1.2 17.99-1.56 26.82-3.49 7.06-1.62 14.35-2.37 21.17-4.93a59.513 59.513 0 0 0 26.1-16.12c3.27-3.64 6.62-8.02 6.34-13.18-.9-5.3-4.86-9.56-9.33-12.25-7.76-4.38-16.96-5.21-25.66-4.03z"/><path d="M1227.482 178.732c11.88-2.51 24.04-1.28 36.03-.55 25.91 1.19 51.86 4.2 76.92 11.08 15 4.54 29.92 11.06 41.32 22.1 7.5 7.42 13.11 16.93 15.1 27.35 2.62 10.71 1.64 21.95-1.02 32.55-4.78 22.98-15.83 44.02-28.01 63.88-10.02 15.59-20.73 30.89-33.68 44.22-8.23 9.11-16.55 19.06-28.16 23.9-9.58 2.87-19.57 4.32-29.54 4.98-15.57 1.44-30.98 4.2-46.48 6.24-.16 1.92-.46 4.13 1.03 5.67 8.31 7.26 19.63 10.18 30.49 10.13 22.24.58 43.91-5.39 65.01-11.76 19.61-6.39 39.27-12.67 58.46-20.26 16.22-6.32 32.72-12.09 48.31-19.86 5.8-2.59 6.76-9.43 9.36-14.52 7.13-17.65 14.51-35.27 24.14-51.73 4.16-6.99 9.48-13.29 15.63-18.61 6.48-5.92 12.72-12.49 20.97-15.96 11.51-4.56 25.33-4.53 36 2.24 6.68 3.95 11.1 11.2 12.05 18.86 2.86 18.01-3.74 35.74-11.01 51.9-15.23 32.95-29.37 66.64-38.05 101.98-2.87 10.76-3.99 21.91-7.26 32.57-1.96 6.34-5.84 11.88-10.39 16.63-6.6 6.77-12.32 14.48-19.99 20.12-7.98 5.95-17.06 11.33-27.23 11.94-6.76.54-14.28.19-19.79-4.24-4.59-4.03-8.33-9.36-9.49-15.44-2.38-11.07-1.64-22.46-1-33.66-5.16.84-9.67 3.55-14.48 5.37-18.86 7.27-37.87 14.24-57.44 19.33-25.02 6.95-50.64 13.1-76.77 12.79-12.74.13-25.53-1.65-37.58-5.84-15.03-5.52-29.32-13.1-42.1-22.75-14.66-11.36-26.4-26.58-33.22-43.85-7.05-20.63-7.79-43.15-3.37-64.43 1.12-4.97 1.76-10.1 3.58-14.88 2.58-6.4 8.49-10.35 13.21-15.05 7.33-7.53 16.21-14.05 26.54-16.64 11.24-3.76 23.28-3.03 34.94-2.58 14.03.3 28 2.86 42.05 1.5 5.31-.44 11.55-1.22 14.86-5.95 6.24-9.21 11.67-18.95 17.52-28.41 4.19-7.41 8.67-14.82 11.47-22.88-23.92-3.5-48.19-3.94-72.04-8.07-11.8-2.12-23.8-4.29-34.61-9.7-7.25-3.72-13.91-9.48-16.77-17.3-3.54-9.52-4.4-20.59-.16-30.03 3.42-6.95 10.15-11.26 15.38-16.71 7.75-8.16 18.09-13.97 29.27-15.67m-9.49 14.46c-4.69 3.23-9.28 7.44-10.19 13.37-.81 8.39.74 18.32 8.13 23.52 8.74 5.88 19.12 8.98 29.5 10.36l.06.26c9.26 1.81 18.64 3.02 28.06 3.68 5.63.66 11.24 1.63 16.91 2 12.7 1.49 25.79 1.12 38.03 5.34 2.49.98 4.55 3.21 4.89 5.94.85 5.65-1.05 11.3-3.11 16.5-4.48 9.85-10.43 18.93-15.81 28.3-5.11 7.63-9.49 15.75-15.04 23.08-4.71 6.13-11.04 10.79-17.77 14.48-9.02 4.36-19.22 5.5-29.14 5.27-17.7.04-35.35-2.61-53.05-1.56-7.85.85-16.64 1.41-22.59 7.28-5.68 5.62-6.34 14.02-7.82 21.44-3.8 23.36-2.2 49.12 11.46 69.22 10.12 16 25.39 28.07 42.08 36.66 8.46 4.57 17.36 8.58 26.88 10.31 10.46 2.48 21.26 2.57 31.95 2.45 12.12-.01 23.98-2.87 35.99-4.16 32.72-6.65 64.48-17.44 95.27-30.29 8.3-3.21 16.55-6.65 24.28-11.09-.36 6.72-1.87 13.34-1.9 20.11-.22 10.33-.71 20.73.35 31.02.38 5.78 5.45 10.5 11.1 11.11 4.89.77 9.72-.78 14.09-2.86 12.7-4.84 22.7-16.64 25.11-30.06 3.96-18.48 7.66-37.09 13.95-54.96 7.38-23.03 16.9-45.27 26.81-67.31 3.72-7.79 7.4-15.62 9.98-23.88 3.24-9.45 6.26-19.74 3.49-29.69-1.84-4.56-4.5-9.45-9.36-11.28-7.46-3.07-16.32-3.09-23.62.43-7.59 4.45-11.67 12.62-16.08 19.88-11.15 19.79-18.78 41.28-27.82 62.06-1.59 3.79-3.94 7.38-7.39 9.73-8.54 6.05-18.46 9.69-28.05 13.7-13.3 5.56-26.62 11.09-40.22 15.88-14.84 5.51-29.69 11.04-44.85 15.62-22.27 7-44.69 14.52-68.08 16.54-12.36.6-25.17.56-36.9-3.87-7.36-2.55-13.38-8.08-17.56-14.54-3.74-5.54-4.42-12.99-2.11-19.19 4.5-7.82 13.62-11.23 21.94-13.3 8.49-2.89 17.47-3.68 26.17-5.77 9.77-1.5 19.71-1.89 29.42-3.93 7.26-1.31 14.86-.96 21.88-3.51 5.48-2 9.21-6.76 13.08-10.89 10.28-11.98 19.45-24.87 27.87-38.22 9.16-15.09 17.8-30.69 23.04-47.63 4.12-12.81 8.11-26.57 4.61-40.02-3.75-15.82-17.08-27.31-31.27-33.99-20.87-9.33-43.7-13.14-66.31-15.2-10.64-.61-21.19-2.38-31.87-2.29-12.82-.09-26.48-1.61-38.47 3.95zM411.852 312.642c25.56-.69 51.14-.28 76.69-1.12 11.99 0 24.01-.72 35.99.04 6.61.3 12.38 4.18 18.98 4.5 6.22.76 11.9-2.65 18.07-2.76 23.6-1.6 47.28-.82 70.91-1.43 16.32-.2 32.64-.78 48.97-.73 6.37.01 13.38.78 18.21 5.39 3.81 3.18 4.66 8.43 4.72 13.12-.01 8.6-.61 17.19-1.32 25.75-.43 6.4-.77 12.9-2.72 19.06-1.63 5.23-.82 10.77-1 16.15.15 4.41-.59 9.03.94 13.27 1.77 3.07 3.87 6.1 4.25 9.74.9 7.43 1.22 15.04.14 22.47-.7 5.38-4.17 10.06-8.68 12.91-5.09 2.8-11.04 1.67-16.57 1.95.43 2.44 1.73 4.56 3.43 6.33 4.28 4.7 5.76 11.16 6.49 17.31 1.45 10.79-.32 22.32-6.41 31.51-6.84 10.69-18.61 17.34-30.7 20.37-14.57 4.07-29.94 3.79-44.88 2.47-14.82-2.35-30.68-7.44-39.97-20.02-7.8-9.9-9.91-23.16-8.32-35.41.67-4.27 1.75-8.58 4-12.32 1.52-2.64 3.62-5.09 4.05-8.22-6.51-.07-14 .13-18.82-5.05-4.04-3.55-4.55-9.06-6.33-13.79-3.99 2.34-7.72 5.38-12.36 6.33-5.24 1.46-10.67.01-15.98.69 2.36 3.96 6.13 6.86 8.34 10.94 9.03 16.17 8.7 37.27-1.42 52.86-10.02 14.75-27.67 22.26-44.89 24.25-16.18 1.45-33.07.76-48.12-5.92-14.18-5.97-25.55-18.65-28.94-33.77-3.23-11.41-1.46-23.9 3.67-34.47 2.07-4.55 6.73-7.75 7.27-12.97-6.48.16-13.6 1.58-19.47-1.96-3.96-2.36-5.46-8.69-10.84-8.27 1.22 8.21 1.15 16.52 1.33 24.81-.03 6.83.22 14.02-2.87 20.33-2.25 4.27-6.18 8-11.09 8.77-6.61 1.18-13.36 1.29-20.06 1.29-4.73-.02-9.53-.21-14.1-1.52-4.03-1.11-6.72-4.66-8.78-8.08-1.55-2.47-1.77-5.61-3.63-7.89-.37-2.3.03-4.59.36-6.86-2.24 2.53-1.07 5.95-1.85 8.95-.76 4.2-.3 9.16-3.66 12.38-5.04 5.83-13.21 6.57-20.4 6.96-7.86.09-16.03.82-23.55-2-6.19-2.37-11.13-8.55-10.91-15.35-.49-17.03 1.86-33.94 2.95-50.9 1.3-15.2 1.87-30.45 3.67-45.6.04-1.81 1.03-5.8-2.15-4.87-9.94.94-19.93 1.1-29.91 1.18-3.89.19-8.42-.13-11.4 2.88-3.86 5.29-3.18 12.2-3.59 18.39-.55 7.65.07 15.39-1.19 22.98-.94 7.1-8.27 11.24-14.79 12.1-1.7.33-4.51.67-4.34 2.97.45 7.63.66 15.28.56 22.94-.06 7.01.41 14.37-2.5 20.93-2.62 4.52-6.93 8.57-12.28 9.34-7.78 1.16-15.67 1.05-23.5.98-4.95-.28-10.55-.4-14.4-4-3.83-3.34-7.01-8-7.2-13.23-.77-8.76.21-17.51.24-26.26-3.41.91-5.11 4.2-7.62 6.37-11.86 11.07-28.02 16.49-43.98 17.63-13.31.87-26.86-1.41-38.94-7.11-19.87-8.89-33.76-29.16-35.99-50.68-2.04-16.11-.71-33.19 7-47.74 2.45-4.46 5.54-8.52 8.58-12.56 3.29-4.42 8.04-7.33 12.41-10.53 7.81-5.52 17.1-8.34 26.33-10.4 16.66-3.4 34.31-1.04 49.72 6.04 7.72 3.56 14.3 9.08 19.91 15.39.65.13 1.94.38 2.59.51-.13-7.75-2.1-16.39 2.82-23.18 4.98-7.76 15.13-8.31 23.43-8.29 8.57.2 18.24-1.17 25.69 4.04 2.4 1.38 2.99 5.92 6.3 5.02 1.98-2.26 3.08-5.19 5.3-7.25 2.83-2.15 6.46-2.69 9.88-3.2 10.25-1.06 20.56-1.32 30.86-1.36 21.36-.16 42.69-1.42 64.05-1.11 5.73.03 11.76 1.42 15.99 5.52 1.49 1.74 4.01 2.51 6.03 1.16 6.31-3.8 13.98-2.53 20.99-2.88 7.82.14 17.22-.55 22.96 5.85 1.71 1.66 3.77 5.11 6.52 3.39 3.03-3.62 4.48-8.57 8.54-11.36 6.42-4.63 14.84-3.35 22.29-4.09m95.63 12.35c-35.99.7-72 .25-107.99 1.27-1.79-.23-3.67.84-3.49 2.83-.37 8.61-.41 17.27.12 25.88 32.89.57 65.78-.93 98.65-1.54.16 11.18-1.43 22.44.17 33.57 10.57 1.37 21.34.95 31.94.07.55-1.73 1.11-3.48 1.17-5.3.57-10.34.75-20.7 1.14-31.05.33-8.51 1.23-17.11.06-25.59-7.17-1.52-14.53-.3-21.77-.14m50 1.64c-.89 7.13-.46 14.34-.4 21.51 25.5.35 50.99-.72 76.47-1.3 7.94.07 15.95-1.16 23.84.13-.27 2.09-.12 5.75-2.95 5.95-12 .82-24.05.61-36.05 1.39-18.24 1.55-36.59 1.22-54.81 3.12-.81.24-1.59.53-2.35.88-.32 6.45-.38 12.91.18 19.35.79 8.69.34 17.46 1.36 26.14 5.32.85 10.8.32 16.07 1.51 1.83 1.87 1.73 6.72-1.37 7.54-6.72 1.28-13.65.02-20.38 1.25-1.07 8.4-.92 16.94-.36 25.37 13.25.65 26.54.39 39.8-.08 26.65-.67 53.31-.73 79.97-1.1 4.89-.14 9.82-.02 14.66-.89 1.77-6.45.8-13.2 1-19.8.23-2.15-.73-4-2.06-5.59-6.85-1.07-13.8.44-20.61-.67-.91-2.36-1.63-6.15.38-8.11 5.09-1.78 10.66-.74 15.94-1.45 1.23-7.17.87-14.51.48-21.74-8.92-1.06-17.89.06-26.83.06-21.49.49-43 1.99-64.5 1.14-.54-1.94-.72-3.97.04-5.87 18.09-1.77 36.3-1.64 54.44-2.77 11.37-.58 22.77-.41 34.13-1.1 1.87-.2 4.8-.11 5.14-2.58 1.2-7.69 1.34-15.49 1.92-23.24.26-6.8 1.01-13.62.34-20.42-5.78-1.17-11.69-.87-17.53-.41-38.64 1.02-77.33.14-115.96 1.78m-346.55 3.41c-1.23 4.43-.86 9.05-.91 13.59.1 5.52-.13 11.08.76 16.55 23.43.73 46.86-.87 70.29-.88a2103.68 2103.68 0 0 1-4.27 51.37c-.72 15.02-2.27 29.97-3.02 44.99-.44 7.17-2.56 14.91.46 21.76 8.06 1.09 16.21.66 24.31.56 2.09-.2 4.94.08 6.16-2.03 1.48-3.55 1.71-7.46 2.17-11.23 2.8-31.69 5.05-63.43 7.53-95.15.78-13.35 3.12-26.67 2.35-40.08-1.72-.61-3.43-1.37-5.29-1.36-6.67-.25-13.34.27-20 .56-26.84.53-53.7.51-80.54 1.35m-57.72 4.56c-1.12 7.98-.45 16.07-.63 24.11.36 35.77-.3 71.56.19 107.33-.21 2.47.55 4.84 1.54 7.08 6.68 1.21 13.49.72 20.24.64 3.77-.32 7.83.03 11.2-2 1.44-6.26.98-12.72 1.11-19.08.2-11.78-.34-23.58.49-35.35 5.02-.59 10.08.05 15.11-.23 1.88.12 3.59-1.47 3.65-3.34.93-6.96.74-14.02.82-21.03-.21-1.95.35-5.34-2.33-5.68-5.76-1.48-11.69.21-17.53-.04-.85-16.43.35-32.92-.15-49.37-.19-1.41.02-3.03-.88-4.22-3.54-1.9-7.68-1.54-11.56-1.63-5.96.11-11.95-.14-17.89.45-1.49.04-2.84.95-3.38 2.36m180.89-1.41c-1.44 8.09-.94 16.34-1 24.52-.03 32.31-.18 64.63.07 96.94.2 6.17-.12 12.56 1.88 18.48 7.71 1.37 15.6.74 23.39.58 2.75-.44 7.05.18 8.12-3.16 1.59-7.17.93-14.59 1.07-21.87.17-33.34-.13-66.68.14-100.01 0-5.11.24-10.28-.9-15.29-5.26-1.95-10.93-1.57-16.42-1.57-5.47.11-11.04-.15-16.35 1.38m-260.01 7.31c-9.74 1.23-19.56 4.23-27.38 10.36-8.15 6.8-15.32 15.37-18.28 25.76-4.16 14.06-3.63 29.38.78 43.32 6.16 16.37 20.96 29.45 38.25 32.71 19.13 4.6 41 1.31 56.19-11.81 14.69-13.4 20.91-34.96 17.23-54.32-2.09-16.6-12.43-32.19-27.38-39.9-12.15-5.88-26.05-8.07-39.41-6.12m359.98 30.69c-1.22 8.47-.59 17.02-.34 25.52.28 1.27-.72 2.71-2.09 2.5-12.13 1.01-24.35-.39-36.46 1.02-.18 9.69-.93 19.5.33 29.13 8.24 1.17 16.63.17 24.93.43 29-.96 58.01-1.59 87.03-1.76 7.6-.23 15.24.13 22.8-.82.8-9.77.7-19.65.01-29.42-17.58-.18-35.18.13-52.78.26-3.51-.18-7.48.96-10.69-.35-.55-8.57.57-17.21-.66-25.74-4.33-1.77-9.08-1.69-13.67-1.68-6.15.09-12.31.06-18.41.91m18.51 67.67c-7.08.87-14.28 1.91-20.83 4.88-7.7 3.52-13.76 9.94-18 17.15-3.74 7.29-4.47 15.88-3.06 23.88 1.15 7.12 5.42 13.33 10.36 18.4 9.67 9.22 23.27 13.16 36.41 13.24 10.4.02 21.23.65 31.09-3.26 7.58-2.84 15.07-7.05 19.72-13.89 4.55-6.6 7.96-14.43 7.58-22.59-.41-12.55-7.83-24.3-18.35-30.92-7.82-4.84-17.15-6.11-26.1-7.19-6.25-.85-12.59-.55-18.82.3m160.02 7.95c-12.69 1.11-26.81 4.29-34.95 14.97-6.83 8.49-7.57 20.36-4.58 30.5 3.62 9.68 12.2 16.96 21.87 20.2 12.94 4.78 26.99 4.21 40.55 3.75 8.43-.17 16.78-2.4 24.26-6.29 8.03-4.28 14.06-12.03 16.49-20.77 1.11-5.6.93-11.5-.39-17.04-2.93-7.87-8.12-15.4-15.95-18.99-14.54-7.2-31.43-7.91-47.3-6.33z"/><path d="M75.032 371.572c6.94-1.55 14.55-1.57 21.06 1.59 6.98 3.43 11.64 10.79 12.32 18.48.96 8.75.16 18.92-6.61 25.33-6.46 6.56-16.44 8.02-25.15 6.26-7.91-1.26-14.07-7.87-16.58-15.22-2.47-8.22-2.15-17.34 1.28-25.25 2.42-5.67 8.08-9.21 13.68-11.19zM610.102 404.292c9.24-.78 18.61-.85 27.85-.09.12 2.33.16 4.65.13 6.99-8.69 3.07-18.2 1.2-27.21 1.01-.92-2.55-.86-5.26-.77-7.91zM454.102 463.542c6.88-1.82 14.58-1.79 21.01 1.54 3.86 2.25 7.44 5.99 7.67 10.69.25 4.26-1.21 8.81-4.52 11.65-4.47 4.17-10.9 5.16-16.79 5.03-4.93-.23-10.23-1.32-13.87-4.91-3.06-3.13-5.55-7.48-4.72-12.02 1.07-5.69 5.64-10.49 11.22-11.98zM618.672 468.822c5.98-.94 12.27-.43 17.93 1.77 5.43 2.14 9.31 8.67 7.3 14.4-2 4.17-6.34 6.64-10.53 8.15-6.3 1.91-13.21 1.81-19.49-.07-6.14-1.96-11.57-8.72-9.14-15.34 2.07-5.74 8.33-8.19 13.93-8.91z"/></g><path fill="#9DD74C" d="M968.592 24.582c10.94-.74 21.93-.81 32.87-.06 14.65 1.13 29.69.78 43.82 5.41 6.76 2.06 10.82 9 11.81 15.66.91 5.89 1.45 12.21-.71 17.89-2.03 3.75-5.16 7.84-9.77 8.13-10.21 1.04-20.5.25-30.7 1.24-14.47.68-28.88 2.04-43.32 3.02-17.09.51-34.07 2.67-51.1 4.04-12.78.67-25.39 2.92-38.12 4.02-9.7.65-19.28 2.32-28.89 3.71-6.06.9-12.21 2.97-16.72 7.27-9.09 8.17-14.04 19.74-18.05 31.03-8.05 22.95-9.21 47.8-6.35 71.81 2.11 14.89 7.1 30.95 20.04 39.95 9.49 7.06 21.89 6.37 33.1 6.16 26.03-.9 52.09-1.62 78-4.47 29.62-3.89 60.12-7.62 86.97-21.67 10.99-6 21.77-12.64 33.85-16.27 7.05-2.22 14.94-3.68 22.06-.93 6.28 2.44 12.08 6.8 15.14 12.92-1.12-.7-2.25-1.39-3.37-2.05-1.03 3.89-2.53 7.68-5.02 10.87-8.61 13.48-23.12 21.18-36.08 29.78-4.59 2.99-7.23 7.91-10.34 12.25-4.39 1.97-9.15 2.88-13.79 4-29.77 8.17-59.9 15.12-90.39 20.03-8.66 1.57-17.31 3.24-26.09 3.98-20.5 2.87-41.25 4.15-61.95 3.46-19.32-.83-38.74-5.61-55.36-15.71-15.73-9.73-28.31-25.21-32.69-43.36-5.86-21.15-5.1-43.31-5.13-65.05-.11-23.05 2.59-46.32 10.1-68.2 5.86-15.42 13.87-30.41 25.81-42.01 8.81-7.59 19.1-13.64 30.44-16.52 34.28-9.41 69.55-15.02 104.94-18.03 11.6-1.57 23.34-1.34 34.99-2.3zM1112.022 307.442c8.7-1.18 17.9-.35 25.66 4.03 4.47 2.69 8.43 6.95 9.33 12.25.28 5.16-3.07 9.54-6.34 13.18a59.513 59.513 0 0 1-26.1 16.12c-6.82 2.56-14.11 3.31-21.17 4.93-8.83 1.93-17.89 2.29-26.82 3.49-11.03 1.36-22.08 2.51-33.18 2.92-3.04-.22-3.25 3.29-4.09 5.42-3.55 12.87-12.48 23.59-14.85 36.85-.65 3.82-3.02 9.29 1.2 11.87 7.9 5.26 17.04 9.22 23.21 16.7 7.34 10.14 10.17 23.03 9.92 35.4-1.15 15.32-9.65 29.37-21.2 39.21-8.54 8.09-19.75 12.2-29.56 18.37-2.31 1.1-1.45 4.43.51 5.43 4 2.27 8.67 3 13.16 3.78 9.49 1.21 19.18 3.72 28.73 1.55 10.15-2.02 18.73-8.31 26.44-14.88 11.23-9.89 26.34-16.97 41.58-14.67 3.15.27 5.44 2.72 6.95 5.3 4.08 7.26 4.25 15.89 4.86 24 .6 6.35-2.61 12.3-6.6 17-6.18 7.29-14.73 11.9-23.12 16.16-13.71 7.12-28.37 12.57-43.52 15.63-15.35 1.86-31.02 2.12-46.32-.36-19.36-4.34-39.43-11.45-52.95-26.69-8.6-11.15-15.31-24.46-16.17-38.72-.76-8.32-.64-17.43 4.39-24.52 2.9-5.18 8.16-8.17 13.13-11.06 8.62-5.03 17.46-10.18 24.18-17.7 2.1-2.49 4.55-6.18 2.81-9.44-1.98-1.91-4.88-2.54-7.52-2.86-24.48-1.53-48.73 5.73-73.21 2.76-6.79-.85-13.75-4.66-16.38-11.27-2.16-6.92.02-14.31 2.82-20.73 2.44-5.19 5.16-10.71 10.04-14.04 3.38-2.4 7.75-1.84 11.66-2.03 15.98-.61 31.98-.25 47.97-.37 2.85.03 6.01-.5 7.87-2.89 3.87-4.62 7.12-9.72 10.43-14.75 3.68-5.55 5.24-12.65 3.42-19.14-.13-1.33-1.43-1.65-2.53-1.76-23.64-.99-47.17 2.06-70.71 3.87-22.8.86-45.62 1.09-68.44 1.57-15.35.29-30.77 1.41-46.1.07-12.22-.98-25.02-4.89-33.18-14.56-5.87-6.09-6.97-15.64-3.81-23.3 2.93-7.43 7.98-15.05 16.06-17.37 7.23-1.56 14.7-.92 22.03-.76 13.82.63 27.17 4.83 40.93 5.95 17.69 1.33 35.47 2.18 53.2 1.13 17.75-.68 35.53-.9 53.28-1.65 11.18-.99 22.4-1.11 33.61-1.54 23.01-1.64 46.05-2.92 69.03-5.05 25.54-1.73 50.18-9.33 75.46-12.83m-163.84 192.7c-5.13 6.99-6.23 16.09-6.1 24.55.24 10.62 6.87 19.81 14.39 26.76 3.81.01 8.87-2.32 8.61-6.77-.6-4.79-3.63-8.77-5.29-13.2-3.17-7.18-1.94-15.21-1.65-22.79.23-3.77-.57-7.9-3.43-10.58-2.38-.73-5.13-.14-6.53 2.03zM507.482 324.992c7.24-.16 14.6-1.38 21.77.14 1.17 8.48.27 17.08-.06 25.59-.39 10.35-.57 20.71-1.14 31.05-.06 1.82-.62 3.57-1.17 5.3-10.6.88-21.37 1.3-31.94-.07-1.6-11.13-.01-22.39-.17-33.57-32.87.61-65.76 2.11-98.65 1.54-.53-8.61-.49-17.27-.12-25.88-.18-1.99 1.7-3.06 3.49-2.83 35.99-1.02 72-.57 107.99-1.27zM557.482 326.632c38.63-1.64 77.32-.76 115.96-1.78 5.84-.46 11.75-.76 17.53.41.67 6.8-.08 13.62-.34 20.42-.58 7.75-.72 15.55-1.92 23.24-.34 2.47-3.27 2.38-5.14 2.58-11.36.69-22.76.52-34.13 1.1-18.14 1.13-36.35 1-54.44 2.77-.76 1.9-.58 3.93-.04 5.87 21.5.85 43.01-.65 64.5-1.14 8.94 0 17.91-1.12 26.83-.06.39 7.23.75 14.57-.48 21.74-5.28.71-10.85-.33-15.94 1.45-2.01 1.96-1.29 5.75-.38 8.11 6.81 1.11 13.76-.4 20.61.67 1.33 1.59 2.29 3.44 2.06 5.59-.2 6.6.77 13.35-1 19.8-4.84.87-9.77.75-14.66.89-26.66.37-53.32.43-79.97 1.1-13.26.47-26.55.73-39.8.08-.56-8.43-.71-16.97.36-25.37 6.73-1.23 13.66.03 20.38-1.25 3.1-.82 3.2-5.67 1.37-7.54-5.27-1.19-10.75-.66-16.07-1.51-1.02-8.68-.57-17.45-1.36-26.14-.56-6.44-.5-12.9-.18-19.35.76-.35 1.54-.64 2.35-.88 18.22-1.9 36.57-1.57 54.81-3.12 12-.78 24.05-.57 36.05-1.39 2.83-.2 2.68-3.86 2.95-5.95-7.89-1.29-15.9-.06-23.84-.13-25.48.58-50.97 1.65-76.47 1.3-.06-7.17-.49-14.38.4-21.51m52.62 77.66c-.09 2.65-.15 5.36.77 7.91 9.01.19 18.52 2.06 27.21-1.01.03-2.34-.01-4.66-.13-6.99-9.24-.76-18.61-.69-27.85.09z"/><path fill="#9DD74C" d="M434.072 371.192c6.1-.85 12.26-.82 18.41-.91 4.59-.01 9.34-.09 13.67 1.68 1.23 8.53.11 17.17.66 25.74 3.21 1.31 7.18.17 10.69.35 17.6-.13 35.2-.44 52.78-.26.69 9.77.79 19.65-.01 29.42-7.56.95-15.2.59-22.8.82-29.02.17-58.03.8-87.03 1.76-8.3-.26-16.69.74-24.93-.43-1.26-9.63-.51-19.44-.33-29.13 12.11-1.41 24.33-.01 36.46-1.02 1.37.21 2.37-1.23 2.09-2.5-.25-8.5-.88-17.05.34-25.52zM452.582 438.862c6.23-.85 12.57-1.15 18.82-.3 8.95 1.08 18.28 2.35 26.1 7.19 10.52 6.62 17.94 18.37 18.35 30.92.38 8.16-3.03 15.99-7.58 22.59-4.65 6.84-12.14 11.05-19.72 13.89-9.86 3.91-20.69 3.28-31.09 3.26-13.14-.08-26.74-4.02-36.41-13.24-4.94-5.07-9.21-11.28-10.36-18.4-1.41-8-.68-16.59 3.06-23.88 4.24-7.21 10.3-13.63 18-17.15 6.55-2.97 13.75-4.01 20.83-4.88m1.52 24.68c-5.58 1.49-10.15 6.29-11.22 11.98-.83 4.54 1.66 8.89 4.72 12.02 3.64 3.59 8.94 4.68 13.87 4.91 5.89.13 12.32-.86 16.79-5.03 3.31-2.84 4.77-7.39 4.52-11.65-.23-4.7-3.81-8.44-7.67-10.69-6.43-3.33-14.13-3.36-21.01-1.54zM612.602 446.812c15.87-1.58 32.76-.87 47.3 6.33 7.83 3.59 13.02 11.12 15.95 18.99 1.32 5.54 1.5 11.44.39 17.04-2.43 8.74-8.46 16.49-16.49 20.77-7.48 3.89-15.83 6.12-24.26 6.29-13.56.46-27.61 1.03-40.55-3.75-9.67-3.24-18.25-10.52-21.87-20.2-2.99-10.14-2.25-22.01 4.58-30.5 8.14-10.68 22.26-13.86 34.95-14.97m6.07 22.01c-5.6.72-11.86 3.17-13.93 8.91-2.43 6.62 3 13.38 9.14 15.34 6.28 1.88 13.19 1.98 19.49.07 4.19-1.51 8.53-3.98 10.53-8.15 2.01-5.73-1.87-12.26-7.3-14.4-5.66-2.2-11.95-2.71-17.93-1.77z"/><g fill="#FFE70B"><path d="M1217.992 193.192c11.99-5.56 25.65-4.04 38.47-3.95 10.68-.09 21.23 1.68 31.87 2.29 22.61 2.06 45.44 5.87 66.31 15.2 14.19 6.68 27.52 18.17 31.27 33.99 3.5 13.45-.49 27.21-4.61 40.02-5.24 16.94-13.88 32.54-23.04 47.63-8.42 13.35-17.59 26.24-27.87 38.22-3.87 4.13-7.6 8.89-13.08 10.89-7.02 2.55-14.62 2.2-21.88 3.51-9.71 2.04-19.65 2.43-29.42 3.93-8.7 2.09-17.68 2.88-26.17 5.77-8.32 2.07-17.44 5.48-21.94 13.3-2.31 6.2-1.63 13.65 2.11 19.19 4.18 6.46 10.2 11.99 17.56 14.54 11.73 4.43 24.54 4.47 36.9 3.87 23.39-2.02 45.81-9.54 68.08-16.54 15.16-4.58 30.01-10.11 44.85-15.62 13.6-4.79 26.92-10.32 40.22-15.88 9.59-4.01 19.51-7.65 28.05-13.7 3.45-2.35 5.8-5.94 7.39-9.73 9.04-20.78 16.67-42.27 27.82-62.06 4.41-7.26 8.49-15.43 16.08-19.88 7.3-3.52 16.16-3.5 23.62-.43 4.86 1.83 7.52 6.72 9.36 11.28 2.77 9.95-.25 20.24-3.49 29.69-2.58 8.26-6.26 16.09-9.98 23.88-9.91 22.04-19.43 44.28-26.81 67.31-6.29 17.87-9.99 36.48-13.95 54.96-2.41 13.42-12.41 25.22-25.11 30.06-5.31-4.26-7.58-10.9-9.43-17.21-2.23-10.55-.83-21.4-1.42-32.08-.51-3.89-1.37-8.2-4.31-10.99-2.6-1.14-5.62-.46-8.37-.62l-.11 1.52c-7.73 4.44-15.98 7.88-24.28 11.09-30.79 12.85-62.55 23.64-95.27 30.29-12.01 1.29-23.87 4.15-35.99 4.16-10.69.12-21.49.03-31.95-2.45-9.52-1.73-18.42-5.74-26.88-10.31-16.69-8.59-31.96-20.66-42.08-36.66-13.66-20.1-15.26-45.86-11.46-69.22 1.48-7.42 2.14-15.82 7.82-21.44 5.95-5.87 14.74-6.43 22.59-7.28 17.7-1.05 35.35 1.6 53.05 1.56 9.92.23 20.12-.91 29.14-5.27 6.73-3.69 13.06-8.35 17.77-14.48 5.55-7.33 9.93-15.45 15.04-23.08 5.38-9.37 11.33-18.45 15.81-28.3 2.06-5.2 3.96-10.85 3.11-16.5-.34-2.73-2.4-4.96-4.89-5.94-12.24-4.22-25.33-3.85-38.03-5.34-5.67-.37-11.28-1.34-16.91-2-9.42-.66-18.8-1.87-28.06-3.68l-.06-.26c-.31-1.91-1-3.73-2.38-5.11-8.46-9.39-17.07-18.81-23.37-29.84-2.2-3.71-1.77-8.17-1.69-12.3zM210.932 330.042c26.84-.84 53.7-.82 80.54-1.35 6.66-.29 13.33-.81 20-.56 1.86-.01 3.57.75 5.29 1.36.77 13.41-1.57 26.73-2.35 40.08-2.48 31.72-4.73 63.46-7.53 95.15-.46 3.77-.69 7.68-2.17 11.23-1.22 2.11-4.07 1.83-6.16 2.03-8.1.1-16.25.53-24.31-.56-3.02-6.85-.9-14.59-.46-21.76.75-15.02 2.3-29.97 3.02-44.99 1.63-17.11 3.06-34.23 4.27-51.37-23.43.01-46.86 1.61-70.29.88-.89-5.47-.66-11.03-.76-16.55.05-4.54-.32-9.16.91-13.59zM153.212 334.602c.54-1.41 1.89-2.32 3.38-2.36 5.94-.59 11.93-.34 17.89-.45 3.88.09 8.02-.27 11.56 1.63.9 1.19.69 2.81.88 4.22.5 16.45-.7 32.94.15 49.37 5.84.25 11.77-1.44 17.53.04 2.68.34 2.12 3.73 2.33 5.68-.08 7.01.11 14.07-.82 21.03-.06 1.87-1.77 3.46-3.65 3.34-5.03.28-10.09-.36-15.11.23-.83 11.77-.29 23.57-.49 35.35-.13 6.36.33 12.82-1.11 19.08-3.37 2.03-7.43 1.68-11.2 2-6.75.08-13.56.57-20.24-.64-.99-2.24-1.75-4.61-1.54-7.08.15-37.46.19-74.92.08-112.37-.01-6.36-.13-12.73.36-19.07zM334.102 333.192c5.31-1.53 10.88-1.27 16.35-1.38 5.49 0 11.16-.38 16.42 1.57 1.14 5.01.9 10.18.9 15.29-.27 33.33.03 66.67-.14 100.01-.14 7.28.52 14.7-1.07 21.87-1.07 3.34-5.37 2.72-8.12 3.16-7.79.16-15.68.79-23.39-.58-2-5.92-1.68-12.31-1.88-18.48-.25-32.31-.1-64.63-.07-96.94.06-8.18-.44-16.43 1-24.52zM74.092 340.502c13.36-1.95 27.26.24 39.41 6.12 14.95 7.71 25.29 23.3 27.38 39.9 3.68 19.36-2.54 40.92-17.23 54.32-15.19 13.12-37.06 16.41-56.19 11.81-17.29-3.26-32.09-16.34-38.25-32.71-4.41-13.94-4.94-29.26-.78-43.32 2.96-10.39 10.13-18.96 18.28-25.76 7.82-6.13 17.64-9.13 27.38-10.36m.94 31.07c-5.6 1.98-11.26 5.52-13.68 11.19-3.43 7.91-3.75 17.03-1.28 25.25 2.51 7.35 8.67 13.96 16.58 15.22 8.71 1.76 18.69.3 25.15-6.26 6.77-6.41 7.57-16.58 6.61-25.33-.68-7.69-5.34-15.05-12.32-18.48-6.51-3.16-14.12-3.14-21.06-1.59z"/></g></svg>